<?xml version="1.0" encoding="utf-8"?>
<!-- Generator: Adobe Illustrator 23.0.1, SVG Export Plug-In . SVG Version: 6.00 Build 0)  -->
<svg version="1.1" id="Layer_1" xmlns="http://www.w3.org/2000/svg" xmlns:xlink="http://www.w3.org/1999/xlink" x="0px" y="0px"
	 viewBox="0 0 1920 768" style="enable-background:new 0 0 1920 768;" xml:space="preserve">
<style type="text/css">
	.st0{fill:#FFFFFF;}
	.st1{fill:url(#SVGID_1_);}
	.st2{fill:url(#SVGID_2_);}
</style>
<rect x="-0.5" y="0.5" class="st0" width="1920" height="768"/>
<linearGradient id="SVGID_1_" gradientUnits="userSpaceOnUse" x1="110.5704" y1="937.7604" x2="1655.8075" y2="-68.7015">
	<stop  offset="0" style="stop-color:#00FFFF"/>
	<stop  offset="0.1421" style="stop-color:#00F2F9"/>
	<stop  offset="0.4029" style="stop-color:#00D1E9"/>
	<stop  offset="0.7503" style="stop-color:#009CD0"/>
	<stop  offset="1" style="stop-color:#0071BC"/>
</linearGradient>
<path class="st1" d="M1920,336.92V768H0V1h960c0,0,97,176.13,477,180.39S1920,336.92,1920,336.92z"/>
<linearGradient id="SVGID_2_" gradientUnits="userSpaceOnUse" x1="-9.094947e-13" y1="768" x2="-9.094947e-13" y2="768">
	<stop  offset="0" style="stop-color:#00FFFF"/>
	<stop  offset="0.1421" style="stop-color:#00F2F9"/>
	<stop  offset="0.4029" style="stop-color:#00D1E9"/>
	<stop  offset="0.7503" style="stop-color:#009CD0"/>
	<stop  offset="1" style="stop-color:#0071BC"/>
</linearGradient>
<path class="st2" d="M0,768"/>
<path class="st0" d="M0,768c0,0,102-41,243-41s240.54,42.54,240.54,42.54S578,727,724,727s235.5,41,235.5,41s103.5-41,243.5-41
	s242.08,41,242.08,41S1525,723,1689,727s231,41,231,41H0z"/>
</svg>
